<svg width="359" height="185" viewBox="0 0 359 185" fill="none" xmlns="http://www.w3.org/2000/svg">
<path d="M325.261 1.54788V1.04788V1.54788ZM350.594 179.089C350.594 180.561 351.788 181.755 353.261 181.755C354.734 181.755 355.928 180.561 355.928 179.089C355.928 177.616 354.734 176.422 353.261 176.422C351.788 176.422 350.594 177.616 350.594 179.089ZM0.793091 2.04827L6.20089 2.04826L6.20089 1.04826L0.79309 1.04827L0.793091 2.04827ZM17.0165 2.04825L27.8321 2.04824V1.04824L17.0165 1.04825V2.04825ZM38.6477 2.04822L49.4633 2.04821L49.4633 1.04821L38.6477 1.04822V2.04822ZM60.2789 2.0482L71.0945 2.04819V1.04819L60.2789 1.0482L60.2789 2.0482ZM81.91 2.04817L92.7256 2.04816V1.04816L81.91 1.04817V2.04817ZM103.541 2.04815L114.357 2.04813V1.04813L103.541 1.04815V2.04815ZM125.172 2.04812L135.988 2.04811V1.04811L125.172 1.04812V2.04812ZM146.804 2.0481L157.619 2.04808V1.04808L146.804 1.0481V2.0481ZM168.435 2.04807L179.25 2.04806V1.04806L168.435 1.04807V2.04807ZM190.066 2.04804L200.882 2.04803L200.882 1.04803L190.066 1.04804V2.04804ZM211.697 2.04802L222.513 2.04801V1.04801L211.697 1.04802V2.04802ZM233.328 2.04799L244.144 2.04798V1.04798L233.328 1.04799V2.04799ZM254.96 2.04797L265.775 2.04795V1.04796L254.96 1.04797V2.04797ZM276.591 2.04794L287.406 2.04793V1.04793L276.591 1.04794V2.04794ZM298.222 2.04792L309.038 2.0479V1.0479L298.222 1.04792V2.04792ZM319.853 2.04789L325.261 2.04788V1.04788L319.853 1.04789V2.04789ZM325.261 2.04788C327.098 2.04788 328.893 2.22798 330.628 2.57133L330.822 1.59034C329.023 1.23441 327.164 1.04788 325.261 1.04788V2.04788ZM340.54 6.67953C343.539 8.68739 346.121 11.2697 348.129 14.2688L348.96 13.7125C346.88 10.6047 344.204 7.92914 341.096 5.84856L340.54 6.67953ZM352.238 24.1804C352.581 25.916 352.761 27.7106 352.761 29.5479H353.761C353.761 27.6451 353.574 25.7855 353.219 23.9863L352.238 24.1804ZM352.761 29.5479V34.8886H353.761V29.5479H352.761ZM352.761 45.5701V56.2516H353.761V45.5701H352.761ZM352.761 66.933V77.6145H353.761V66.933H352.761ZM352.761 88.296V98.9775H353.761V88.296H352.761ZM352.761 109.659V120.34H353.761V109.659H352.761ZM352.761 131.022V141.703H353.761V131.022H352.761ZM352.761 152.385V163.066H353.761V152.385H352.761ZM352.761 173.748V179.089H353.761V173.748H352.761ZM325.261 1.54788V0.547885V1.54788ZM347.928 179.089C347.928 182.034 350.315 184.422 353.261 184.422C356.206 184.422 358.594 182.034 358.594 179.089C358.594 176.143 356.206 173.755 353.261 173.755C350.315 173.755 347.928 176.143 347.928 179.089ZM0.793092 2.54827L6.20089 2.54826L6.20089 0.548262L0.79309 0.548268L0.793092 2.54827ZM17.0165 2.54825L27.8321 2.54824L27.8321 0.548236L17.0165 0.548249L17.0165 2.54825ZM38.6477 2.54822L49.4633 2.54821L49.4633 0.548211L38.6477 0.548224L38.6477 2.54822ZM60.2789 2.5482L71.0945 2.54819V0.548185L60.2789 0.548198L60.2789 2.5482ZM81.91 2.54817L92.7256 2.54816L92.7256 0.54816L81.91 0.548172V2.54817ZM103.541 2.54815L114.357 2.54813V0.548134L103.541 0.548147V2.54815ZM125.172 2.54812L135.988 2.54811V0.548108L125.172 0.548121V2.54812ZM146.804 2.5481L157.619 2.54808V0.548083L146.804 0.548096V2.5481ZM168.435 2.54807L179.25 2.54806V0.548057L168.435 0.54807L168.435 2.54807ZM190.066 2.54804L200.882 2.54803L200.882 0.548032L190.066 0.548045V2.54804ZM211.697 2.54802L222.513 2.54801V0.548006L211.697 0.548019V2.54802ZM233.328 2.54799L244.144 2.54798L244.144 0.547981L233.328 0.547993V2.54799ZM254.96 2.54797L265.775 2.54796V0.547955L254.96 0.547968V2.54797ZM276.591 2.54794L287.406 2.54793V0.547929L276.591 0.547942V2.54794ZM298.222 2.54792L309.038 2.5479V0.547904L298.222 0.547917V2.54792ZM319.853 2.54789L325.261 2.54788V0.547885L319.853 0.547891V2.54789ZM325.261 2.54788C327.065 2.54788 328.828 2.72476 330.531 3.06182L330.919 1.09984C329.089 0.737631 327.196 0.547882 325.261 0.547885V2.54788ZM340.262 7.09501C343.207 9.06652 345.742 11.6021 347.714 14.547L349.376 13.4343C347.259 10.2723 344.537 7.55002 341.374 5.43307L340.262 7.09501ZM351.747 24.2774C352.084 25.9812 352.261 27.7434 352.261 29.5479H354.261C354.261 27.6124 354.071 25.7202 353.709 23.8893L351.747 24.2774ZM352.261 29.5479V34.8886H354.261V29.5479H352.261ZM352.261 45.5701V56.2516H354.261V45.5701H352.261ZM352.261 66.933V77.6145H354.261V66.933H352.261ZM352.261 88.296V98.9775H354.261V88.296H352.261ZM352.261 109.659V120.34H354.261V109.659H352.261ZM352.261 131.022V141.703H354.261V131.022H352.261ZM352.261 152.385V163.066H354.261V152.385H352.261ZM352.261 173.748V179.089H354.261V173.748H352.261Z" fill="url(#paint0_linear_258_5)"/>
<defs>
<linearGradient id="paint0_linear_258_5" x1="353.261" y1="192.026" x2="23.9881" y2="-69.7767" gradientUnits="userSpaceOnUse">
<stop stop-color="#FAFAFA"/>
<stop offset="1" stop-color="#FAFAFA" stop-opacity="0.25"/>
</linearGradient>
</defs>
</svg>
