<svg width="358" height="202" viewBox="0 0 358 202" fill="none" xmlns="http://www.w3.org/2000/svg">
<path d="M33.5 1.17679V0.676791V1.17679ZM8.16656 195.717C8.16656 197.19 6.97266 198.384 5.49991 198.384C4.02716 198.384 2.83325 197.19 2.83325 195.717C2.83325 194.245 4.02716 193.051 5.49991 193.051C6.97266 193.051 8.16656 194.245 8.16656 195.717ZM357.968 1.67717L352.56 1.67717L352.56 0.677168L357.968 0.677175L357.968 1.67717ZM341.744 1.67716L330.929 1.67714V0.677143L341.744 0.677155V1.67716ZM320.113 1.67713L309.298 1.67712L309.298 0.677117L320.113 0.67713V1.67713ZM298.482 1.6771L287.666 1.67709V0.677091L298.482 0.677104L298.482 1.6771ZM276.851 1.67708L266.035 1.67707V0.677066L276.851 0.677079V1.67708ZM255.22 1.67705L244.404 1.67704V0.67704L255.22 0.677053V1.67705ZM233.588 1.67703L222.773 1.67701V0.677015L233.588 0.677027V1.67703ZM211.957 1.677L201.142 1.67699V0.676989L211.957 0.677002V1.677ZM190.326 1.67698L179.51 1.67696V0.676964L190.326 0.676976V1.67698ZM168.695 1.67695L157.879 1.67694L157.879 0.676938L168.695 0.676951V1.67695ZM147.064 1.67693L136.248 1.67691V0.676912L147.064 0.676925V1.67693ZM125.432 1.6769L114.617 1.67689V0.676887L125.432 0.6769V1.6769ZM103.801 1.67687L92.9857 1.67686V0.676861L103.801 0.676874V1.67687ZM82.1701 1.67685L71.3545 1.67684V0.676836L82.1701 0.676848V1.67685ZM60.5389 1.67682L49.7233 1.67681V0.67681L60.5389 0.676823V1.67682ZM38.9077 1.6768L33.5 1.67679V0.676791L38.9077 0.676797V1.6768ZM33.5 1.67679C31.6627 1.67679 29.868 1.85688 28.1324 2.20023L27.9384 1.21924C29.7375 0.863319 31.5972 0.676789 33.5 0.676791V1.67679ZM18.2209 6.30843C15.2217 8.3163 12.6395 10.8986 10.6316 13.8977L9.8006 13.3414C11.8812 10.2336 14.5568 7.55805 17.6646 5.47746L18.2209 6.30843ZM6.52335 23.8093C6.17999 25.5449 5.99991 27.3396 5.99991 29.1768H4.99991C4.99991 27.274 5.18643 25.4144 5.54236 23.6152L6.52335 23.8093ZM5.99991 29.1768V34.3812H4.99991V29.1768H5.99991ZM5.99991 44.79V55.1988H4.99991V44.79H5.99991ZM5.99991 65.6076V76.0163H4.99991V65.6076H5.99991ZM5.99991 86.4251V96.8339H4.99991V86.4251H5.99991ZM5.99991 107.243V117.652H4.99991V107.243H5.99991ZM5.99991 128.06V138.469H4.99991V128.06H5.99991ZM5.99991 148.878V159.287H4.99991V148.878H5.99991ZM5.99991 169.695V180.104H4.99991V169.695H5.99991ZM5.99991 190.513V195.717H4.99991V190.513H5.99991ZM33.5 1.17679V0.176791V1.17679ZM10.8333 195.717C10.8333 198.663 8.44543 201.051 5.49991 201.051C2.55438 201.051 0.166565 198.663 0.166565 195.717C0.166565 192.772 2.55438 190.384 5.49991 190.384C8.44543 190.384 10.8333 192.772 10.8333 195.717ZM357.968 2.17717L352.56 2.17717L352.56 0.177168L357.968 0.177175L357.968 2.17717ZM341.744 2.17716L330.929 2.17714L330.929 0.177143L341.744 0.177155L341.744 2.17716ZM320.113 2.17713L309.298 2.17712L309.298 0.177117L320.113 0.17713L320.113 2.17713ZM298.482 2.1771L287.666 2.17709V0.177091L298.482 0.177104L298.482 2.1771ZM276.851 2.17708L266.035 2.17707L266.035 0.177066L276.851 0.177079V2.17708ZM255.22 2.17705L244.404 2.17704V0.17704L255.22 0.177053V2.17705ZM233.588 2.17703L222.773 2.17701V0.177015L233.588 0.177028V2.17703ZM211.957 2.177L201.142 2.17699V0.176989L211.957 0.177002V2.177ZM190.326 2.17698L179.51 2.17696V0.176964L190.326 0.176976L190.326 2.17698ZM168.695 2.17695L157.879 2.17694L157.879 0.176938L168.695 0.176951V2.17695ZM147.064 2.17693L136.248 2.17691V0.176912L147.064 0.176925V2.17693ZM125.432 2.1769L114.617 2.17689L114.617 0.176887L125.432 0.1769V2.1769ZM103.801 2.17687L92.9857 2.17686V0.176861L103.801 0.176874V2.17687ZM82.1701 2.17685L71.3545 2.17684V0.176836L82.1701 0.176848V2.17685ZM60.5389 2.17682L49.7233 2.17681V0.17681L60.5389 0.176823V2.17682ZM38.9077 2.1768L33.5 2.17679V0.176791L38.9077 0.176797V2.1768ZM33.5 2.17679C31.6955 2.17679 29.9333 2.35367 28.2295 2.69073L27.8414 0.728751C29.6723 0.366537 31.5645 0.176789 33.5 0.176791V2.17679ZM18.499 6.72392C15.5542 8.69542 13.0186 11.231 11.0471 14.1759L9.38513 13.0632C11.5021 9.90116 14.2243 7.17892 17.3864 5.06198L18.499 6.72392ZM7.01385 23.9063C6.67679 25.6101 6.49991 27.3723 6.49991 29.1768H4.49991C4.49991 27.2413 4.68967 25.3491 5.05188 23.5182L7.01385 23.9063ZM6.49991 29.1768V34.3812H4.49991V29.1768H6.49991ZM6.49991 44.79V55.1988H4.49991V44.79H6.49991ZM6.49991 65.6076V76.0163H4.49991V65.6076H6.49991ZM6.49991 86.4251V96.8339H4.49991V86.4251H6.49991ZM6.49991 107.243V117.652H4.49991V107.243H6.49991ZM6.49991 128.06V138.469H4.49991V128.06H6.49991ZM6.49991 148.878V159.287H4.49991V148.878H6.49991ZM6.49991 169.695V180.104H4.49991V169.695H6.49991ZM6.49991 190.513V195.717H4.49991V190.513H6.49991Z" fill="url(#paint0_linear_258_9)"/>
<defs>
<linearGradient id="paint0_linear_258_9" x1="5.50024" y1="228.655" x2="334.773" y2="-33.1477" gradientUnits="userSpaceOnUse">
<stop stop-color="#FAFAFA"/>
<stop offset="1" stop-color="#FAFAFA" stop-opacity="0.25"/>
</linearGradient>
</defs>
</svg>
